<svg width="264" height="47" viewBox="0 0 264 47" fill="none" xmlns="http://www.w3.org/2000/svg">
<g filter="url(#filter0_i_2382_8030)">
<rect width="263.797" height="46.198" rx="15.8985" fill="white" fill-opacity="0.12"/>
<rect x="0.5" y="0.5" width="262.797" height="45.198" rx="15.3985" stroke="#E9E8E8"/>
<line x1="18.4985" y1="18.5485" x2="238.527" y2="18.5485" stroke="black" stroke-opacity="0.4" stroke-width="1.32487"/>
<line x1="19.2108" y1="14.5737" x2="19.2108" y2="22.523" stroke="black" stroke-opacity="0.4" stroke-width="1.32487"/>
<line x1="20" y1="18" x2="134" y2="18" stroke="black" stroke-opacity="0.9" stroke-width="2"/>
<path d="M45.6288 28.0786C45.6288 25.7256 46.7841 24.1358 48.6708 24.1358C50.5468 24.1358 51.7021 25.7256 51.7021 28.0786C51.7021 30.4422 50.568 32.0108 48.6708 32.0108C46.7629 32.0108 45.6288 30.4422 45.6288 28.0786ZM46.3814 28.0786C46.3814 30.05 47.2187 31.3219 48.6708 31.3219C50.1228 31.3219 50.9601 30.05 50.9601 28.0786C50.9601 26.0966 50.1228 24.8353 48.6708 24.8353C47.2187 24.8353 46.3814 26.0966 46.3814 28.0786ZM57.3367 31.873H52.3339V31.2689L54.7611 29.1491C56.1602 27.9302 56.5205 27.4003 56.5205 26.4994C56.5205 25.4713 55.9058 24.8459 54.8989 24.8459C53.8496 24.8459 53.1607 25.609 53.1289 26.7855H52.3657C52.4081 25.1957 53.415 24.1464 54.9095 24.1464C56.3404 24.1464 57.2943 25.0685 57.2943 26.457C57.2943 27.5593 56.7961 28.2906 55.2805 29.6155L53.5104 31.1629H57.3367V31.873Z" fill="black" fill-opacity="0.4"/>
<path d="M16.4814 28.0786C16.4814 25.7256 17.6367 24.1358 19.5233 24.1358C21.3993 24.1358 22.5546 25.7256 22.5546 28.0786C22.5546 30.4422 21.4205 32.0108 19.5233 32.0108C17.6155 32.0108 16.4814 30.4422 16.4814 28.0786ZM17.2339 28.0786C17.2339 30.05 18.0712 31.3219 19.5233 31.3219C20.9754 31.3219 21.8127 30.05 21.8127 28.0786C21.8127 26.0966 20.9754 24.8353 19.5233 24.8353C18.0712 24.8353 17.2339 26.0966 17.2339 28.0786ZM24.6279 24.9731H23.0805V24.2842H25.3593V31.873H24.6279V24.9731Z" fill="black" fill-opacity="0.4"/>
<path d="M101.273 28.0786C101.273 25.7256 102.429 24.1358 104.315 24.1358C106.191 24.1358 107.347 25.7256 107.347 28.0786C107.347 30.4422 106.213 32.0108 104.315 32.0108C102.407 32.0108 101.273 30.4422 101.273 28.0786ZM102.026 28.0786C102.026 30.05 102.863 31.3219 104.315 31.3219C105.767 31.3219 106.605 30.05 106.605 28.0786C106.605 26.0966 105.767 24.8353 104.315 24.8353C102.863 24.8353 102.026 26.0966 102.026 28.0786ZM110.1 27.803H109.496V27.2731L111.838 24.9625H108.203V24.2842H112.803V24.8989L110.535 27.1565C111.955 27.2307 112.973 28.1316 112.973 29.5095C112.973 31.0145 111.87 32.0002 110.333 32.0002C108.839 32.0002 107.832 31.0781 107.832 29.5625H108.585C108.585 30.6542 109.263 31.3113 110.333 31.3113C111.468 31.3113 112.199 30.5906 112.199 29.4883C112.199 28.4496 111.457 27.803 110.1 27.803Z" fill="black" fill-opacity="0.4"/>
<path d="M154.268 28.0786C154.268 25.7256 155.423 24.1358 157.31 24.1358C159.186 24.1358 160.341 25.7256 160.341 28.0786C160.341 30.4422 159.207 32.0108 157.31 32.0108C155.402 32.0108 154.268 30.4422 154.268 28.0786ZM155.021 28.0786C155.021 30.05 155.858 31.3219 157.31 31.3219C158.762 31.3219 159.599 30.05 159.599 28.0786C159.599 26.0966 158.762 24.8353 157.31 24.8353C155.858 24.8353 155.021 26.0966 155.021 28.0786ZM166.538 30.262H165.647V31.873H164.905V30.262H160.92V29.5837L164.63 24.2842H165.647V29.5837H166.538V30.262ZM161.747 29.5837H164.905V25.0685L161.747 29.5837Z" fill="black" fill-opacity="0.4"/>
<path d="M208.588 28.0786C208.588 25.7256 209.743 24.1358 211.63 24.1358C213.506 24.1358 214.661 25.7256 214.661 28.0786C214.661 30.4422 213.527 32.0108 211.63 32.0108C209.722 32.0108 208.588 30.4422 208.588 28.0786ZM209.34 28.0786C209.34 30.05 210.178 31.3219 211.63 31.3219C213.082 31.3219 213.919 30.05 213.919 28.0786C213.919 26.0966 213.082 24.8353 211.63 24.8353C210.178 24.8353 209.34 26.0966 209.34 28.0786ZM217.89 32.0002C216.363 32.0002 215.388 31.0463 215.388 29.5519H216.151C216.151 30.6436 216.819 31.3007 217.9 31.3007C219.045 31.3007 219.787 30.5376 219.787 29.4141C219.787 28.3542 219.098 27.5169 217.9 27.5169C217.201 27.5169 216.565 27.8348 216.151 28.2906L215.547 28.0998L216.459 24.2842H220.126V24.9837H217.01L216.438 27.3685C216.862 27.0293 217.413 26.8385 218.006 26.8385C219.586 26.8385 220.561 27.9726 220.561 29.3929C220.561 30.9191 219.48 32.0002 217.89 32.0002Z" fill="black" fill-opacity="0.4"/>
<path d="M233.761 28.0786C233.761 25.7256 234.916 24.1358 236.803 24.1358C238.679 24.1358 239.834 25.7256 239.834 28.0786C239.834 30.4422 238.7 32.0108 236.803 32.0108C234.895 32.0108 233.761 30.4422 233.761 28.0786ZM234.513 28.0786C234.513 30.05 235.351 31.3219 236.803 31.3219C238.255 31.3219 239.092 30.05 239.092 28.0786C239.092 26.0966 238.255 24.8353 236.803 24.8353C235.351 24.8353 234.513 26.0966 234.513 28.0786ZM241.43 26.8385L243.328 24.2842H244.218L242.225 26.9233C242.586 26.7431 242.914 26.6689 243.264 26.6689C244.843 26.6689 245.892 27.8242 245.892 29.3081C245.892 30.8661 244.716 32.0002 243.2 32.0002C241.674 32.0002 240.476 30.8237 240.476 29.3081C240.476 28.4284 240.72 27.8136 241.43 26.8385ZM241.25 29.3187C241.25 30.474 242.045 31.3113 243.2 31.3113C244.324 31.3113 245.129 30.474 245.129 29.3187C245.129 28.1634 244.324 27.3367 243.2 27.3367C242.045 27.3367 241.25 28.1634 241.25 29.3187Z" fill="black" fill-opacity="0.4"/>
<line x1="51.0077" y1="10.5991" x2="51.0077" y2="18.658" stroke="black" stroke-opacity="0.4" stroke-width="1.32487"/>
<line x1="105.327" y1="10.5991" x2="105.327" y2="18.658" stroke="black" stroke-opacity="0.4" stroke-width="1.32487"/>
<line x1="159.647" y1="10.5991" x2="159.647" y2="18.658" stroke="black" stroke-opacity="0.4" stroke-width="1.32487"/>
<line x1="213.967" y1="10.5991" x2="213.967" y2="18.658" stroke="black" stroke-opacity="0.4" stroke-width="1.32487"/>
<line x1="239.139" y1="14.5737" x2="239.139" y2="22.523" stroke="black" stroke-opacity="0.4" stroke-width="1.32487"/>
</g>
<defs>
<filter id="filter0_i_2382_8030" x="0" y="0" width="267.797" height="50.1978" filterUnits="userSpaceOnUse" color-interpolation-filters="sRGB">
<feFlood flood-opacity="0" result="BackgroundImageFix"/>
<feBlend mode="normal" in="SourceGraphic" in2="BackgroundImageFix" result="shape"/>
<feColorMatrix in="SourceAlpha" type="matrix" values="0 0 0 0 0 0 0 0 0 0 0 0 0 0 0 0 0 0 127 0" result="hardAlpha"/>
<feOffset dx="4" dy="4"/>
<feGaussianBlur stdDeviation="6"/>
<feComposite in2="hardAlpha" operator="arithmetic" k2="-1" k3="1"/>
<feColorMatrix type="matrix" values="0 0 0 0 0 0 0 0 0 0 0 0 0 0 0 0 0 0 0.25 0"/>
<feBlend mode="normal" in2="shape" result="effect1_innerShadow_2382_8030"/>
</filter>
</defs>
</svg>
