<svg width="261" height="47" viewBox="0 0 261 47" fill="none" xmlns="http://www.w3.org/2000/svg">
<rect width="261" height="46.3706" rx="15.8985" fill="white" fill-opacity="0.12"/>
<line x1="18.4985" y1="18.5482" x2="238.527" y2="18.5482" stroke="white" stroke-opacity="0.6" stroke-width="1.32487"/>
<line x1="19.2108" y1="14.5736" x2="19.2108" y2="22.5228" stroke="white" stroke-opacity="0.6" stroke-width="1.32487"/>
<path d="M45.6288 28.0787C45.6288 25.7257 46.7841 24.1358 48.6708 24.1358C50.5468 24.1358 51.7021 25.7257 51.7021 28.0787C51.7021 30.4422 50.568 32.0109 48.6708 32.0109C46.7629 32.0109 45.6288 30.4422 45.6288 28.0787ZM46.3814 28.0787C46.3814 30.0501 47.2187 31.322 48.6708 31.322C50.1228 31.322 50.9601 30.0501 50.9601 28.0787C50.9601 26.0967 50.1228 24.8354 48.6708 24.8354C47.2187 24.8354 46.3814 26.0967 46.3814 28.0787ZM57.3367 31.8731H52.3339V31.269L54.7611 29.1492C56.1602 27.9303 56.5205 27.4003 56.5205 26.4994C56.5205 25.4713 55.9058 24.846 54.8989 24.846C53.8496 24.846 53.1607 25.6091 53.1289 26.7856H52.3657C52.4081 25.1957 53.415 24.1464 54.9095 24.1464C56.3404 24.1464 57.2943 25.0686 57.2943 26.457C57.2943 27.5593 56.7961 28.2907 55.2805 29.6155L53.5104 31.163H57.3367V31.8731Z" fill="white" fill-opacity="0.6"/>
<path d="M16.4814 28.0787C16.4814 25.7257 17.6367 24.1358 19.5233 24.1358C21.3993 24.1358 22.5546 25.7257 22.5546 28.0787C22.5546 30.4422 21.4205 32.0109 19.5233 32.0109C17.6155 32.0109 16.4814 30.4422 16.4814 28.0787ZM17.2339 28.0787C17.2339 30.0501 18.0712 31.322 19.5233 31.322C20.9754 31.322 21.8127 30.0501 21.8127 28.0787C21.8127 26.0967 20.9754 24.8354 19.5233 24.8354C18.0712 24.8354 17.2339 26.0967 17.2339 28.0787ZM24.6279 24.9732H23.0805V24.2842H25.3593V31.8731H24.6279V24.9732Z" fill="white" fill-opacity="0.6"/>
<path d="M101.273 28.0787C101.273 25.7257 102.429 24.1358 104.315 24.1358C106.191 24.1358 107.347 25.7257 107.347 28.0787C107.347 30.4422 106.213 32.0109 104.315 32.0109C102.407 32.0109 101.273 30.4422 101.273 28.0787ZM102.026 28.0787C102.026 30.0501 102.863 31.322 104.315 31.322C105.767 31.322 106.605 30.0501 106.605 28.0787C106.605 26.0967 105.767 24.8354 104.315 24.8354C102.863 24.8354 102.026 26.0967 102.026 28.0787ZM110.1 27.8031H109.496V27.2731L111.838 24.9626H108.203V24.2842H112.803V24.899L110.535 27.1566C111.955 27.2308 112.973 28.1317 112.973 29.5095C112.973 31.0146 111.87 32.0003 110.333 32.0003C108.839 32.0003 107.832 31.0782 107.832 29.5625H108.585C108.585 30.6542 109.263 31.3114 110.333 31.3114C111.468 31.3114 112.199 30.5906 112.199 29.4883C112.199 28.4496 111.457 27.8031 110.1 27.8031Z" fill="white" fill-opacity="0.6"/>
<path d="M154.268 28.0787C154.268 25.7257 155.423 24.1358 157.31 24.1358C159.186 24.1358 160.341 25.7257 160.341 28.0787C160.341 30.4422 159.207 32.0109 157.31 32.0109C155.402 32.0109 154.268 30.4422 154.268 28.0787ZM155.021 28.0787C155.021 30.0501 155.858 31.322 157.31 31.322C158.762 31.322 159.599 30.0501 159.599 28.0787C159.599 26.0967 158.762 24.8354 157.31 24.8354C155.858 24.8354 155.021 26.0967 155.021 28.0787ZM166.538 30.2621H165.647V31.8731H164.905V30.2621H160.92V29.5837L164.63 24.2842H165.647V29.5837H166.538V30.2621ZM161.747 29.5837H164.905V25.0686L161.747 29.5837Z" fill="white" fill-opacity="0.6"/>
<path d="M208.588 28.0787C208.588 25.7257 209.743 24.1358 211.63 24.1358C213.506 24.1358 214.661 25.7257 214.661 28.0787C214.661 30.4422 213.527 32.0109 211.63 32.0109C209.722 32.0109 208.588 30.4422 208.588 28.0787ZM209.34 28.0787C209.34 30.0501 210.178 31.322 211.63 31.322C213.082 31.322 213.919 30.0501 213.919 28.0787C213.919 26.0967 213.082 24.8354 211.63 24.8354C210.178 24.8354 209.34 26.0967 209.34 28.0787ZM217.89 32.0003C216.363 32.0003 215.388 31.0464 215.388 29.5519H216.151C216.151 30.6436 216.819 31.3008 217.9 31.3008C219.045 31.3008 219.787 30.5376 219.787 29.4141C219.787 28.3542 219.098 27.5169 217.9 27.5169C217.201 27.5169 216.565 27.8349 216.151 28.2907L215.547 28.0999L216.459 24.2842H220.126V24.9838H217.01L216.438 27.3685C216.862 27.0294 217.413 26.8386 218.006 26.8386C219.586 26.8386 220.561 27.9727 220.561 29.3929C220.561 30.9192 219.48 32.0003 217.89 32.0003Z" fill="white" fill-opacity="0.6"/>
<path d="M233.761 28.0787C233.761 25.7257 234.916 24.1358 236.803 24.1358C238.679 24.1358 239.834 25.7257 239.834 28.0787C239.834 30.4422 238.7 32.0109 236.803 32.0109C234.895 32.0109 233.761 30.4422 233.761 28.0787ZM234.513 28.0787C234.513 30.0501 235.351 31.322 236.803 31.322C238.255 31.322 239.092 30.0501 239.092 28.0787C239.092 26.0967 238.255 24.8354 236.803 24.8354C235.351 24.8354 234.513 26.0967 234.513 28.0787ZM241.43 26.8386L243.328 24.2842H244.218L242.225 26.9234C242.586 26.7432 242.914 26.669 243.264 26.669C244.843 26.669 245.892 27.8243 245.892 29.3082C245.892 30.8662 244.716 32.0003 243.2 32.0003C241.674 32.0003 240.476 30.8238 240.476 29.3082C240.476 28.4284 240.72 27.8137 241.43 26.8386ZM241.25 29.3188C241.25 30.474 242.045 31.3114 243.2 31.3114C244.324 31.3114 245.129 30.474 245.129 29.3188C245.129 28.1635 244.324 27.3367 243.2 27.3367C242.045 27.3367 241.25 28.1635 241.25 29.3188Z" fill="white" fill-opacity="0.6"/>
<line x1="51.0077" y1="10.599" x2="51.0077" y2="18.6579" stroke="white" stroke-opacity="0.6" stroke-width="1.32487"/>
<line x1="105.327" y1="10.599" x2="105.327" y2="18.6579" stroke="white" stroke-opacity="0.6" stroke-width="1.32487"/>
<line x1="159.647" y1="10.599" x2="159.647" y2="18.6579" stroke="white" stroke-opacity="0.6" stroke-width="1.32487"/>
<line x1="213.967" y1="10.599" x2="213.967" y2="18.6579" stroke="white" stroke-opacity="0.6" stroke-width="1.32487"/>
<line x1="239.139" y1="14.5736" x2="239.139" y2="22.5228" stroke="white" stroke-opacity="0.6" stroke-width="1.32487"/>
</svg>
