<svg width="1512" height="1052" viewBox="0 0 1512 1052" fill="none" xmlns="http://www.w3.org/2000/svg">
<g filter="url(#filter0_d_2377_10266)">
<g clip-path="url(#clip0_2377_10266)">
<path d="M0 50C0 27.9086 17.9086 10 40 10H1472C1494.09 10 1512 27.9086 1512 50V994C1512 1016.09 1494.09 1034 1472 1034H40C17.9086 1034 0 1016.09 0 994V50Z" fill="black"/>
<g filter="url(#filter1_f_2377_10266)">
<path d="M737.738 31.2412L796.198 323.596C822.015 452.705 889.584 569.738 988.487 656.651L1212.44 853.457L737.738 692.851L263.031 853.457L486.988 656.651C585.891 569.738 653.46 452.706 679.277 323.596L737.738 31.2412Z" fill="#2388FF"/>
</g>
<g opacity="0.4" filter="url(#filter2_f_2377_10266)">
<path d="M737.737 -42.0356L813.713 337.91C839.53 467.019 907.099 584.052 1006 670.965L1297.06 926.734L737.737 737.501L178.418 926.734L469.473 670.965C568.376 584.052 635.945 467.019 661.762 337.91L737.737 -42.0356Z" fill="#2388FF"/>
</g>
<g style="mix-blend-mode:plus-lighter" filter="url(#filter3_f_2377_10266)">
<ellipse cx="737.737" cy="789.56" rx="267.912" ry="189.309" fill="#4A3AFF"/>
</g>
<g style="mix-blend-mode:plus-lighter" filter="url(#filter4_f_2377_10266)">
<path d="M737.648 661.644C1013.49 661.644 1252.9 700.419 1372.43 757.232C1245.73 704.051 1008.9 668.27 737.648 668.27C466.395 668.27 229.565 704.051 102.865 757.232C222.4 700.419 461.804 661.644 737.648 661.644Z" fill="#2388FF"/>
</g>
<g style="mix-blend-mode:plus-lighter" filter="url(#filter5_f_2377_10266)">
<path d="M1372.44 757.236C1245.74 704.052 1008.91 668.27 737.649 668.27C466.388 668.27 229.552 704.052 102.854 757.236C222.386 700.42 461.796 645.678 737.649 645.678C1013.5 645.678 1252.91 700.42 1372.44 757.236Z" fill="#4A3AFF"/>
</g>
<path d="M1470.45 846.177C1470.45 901.076 1590.75 1039.11 1429.76 1071.74C1302.62 1097.51 876.565 1071.74 697.98 1071.74C537.317 1071.74 196.114 1081.66 75.3347 1060.38C-108.133 1028.04 0.374508 913.341 4.84955 846.177C4.84955 747.921 332.935 668.27 737.649 668.27C1142.36 668.27 1470.45 747.921 1470.45 846.177Z" fill="black"/>
</g>
<path d="M40 10.5H1472C1493.82 10.5 1511.5 28.1848 1511.5 50V994C1511.5 1015.82 1493.82 1033.5 1472 1033.5H40C18.1848 1033.5 0.5 1015.82 0.5 994V50C0.5 28.1848 18.1848 10.5 40 10.5Z" stroke="black" stroke-opacity="0.75"/>
</g>
<defs>
<filter id="filter0_d_2377_10266" x="-14" y="0" width="1540" height="1052" filterUnits="userSpaceOnUse" color-interpolation-filters="sRGB">
<feFlood flood-opacity="0" result="BackgroundImageFix"/>
<feColorMatrix in="SourceAlpha" type="matrix" values="0 0 0 0 0 0 0 0 0 0 0 0 0 0 0 0 0 0 127 0" result="hardAlpha"/>
<feOffset dy="4"/>
<feGaussianBlur stdDeviation="7"/>
<feComposite in2="hardAlpha" operator="out"/>
<feColorMatrix type="matrix" values="0 0 0 0 0 0 0 0 0 0 0 0 0 0 0 0 0 0 0.25 0"/>
<feBlend mode="normal" in2="BackgroundImageFix" result="effect1_dropShadow_2377_10266"/>
<feBlend mode="normal" in="SourceGraphic" in2="effect1_dropShadow_2377_10266" result="shape"/>
</filter>
<filter id="filter1_f_2377_10266" x="63.0312" y="-168.759" width="1349.41" height="1222.22" filterUnits="userSpaceOnUse" color-interpolation-filters="sRGB">
<feFlood flood-opacity="0" result="BackgroundImageFix"/>
<feBlend mode="normal" in="SourceGraphic" in2="BackgroundImageFix" result="shape"/>
<feGaussianBlur stdDeviation="100" result="effect1_foregroundBlur_2377_10266"/>
</filter>
<filter id="filter2_f_2377_10266" x="-21.582" y="-242.036" width="1518.64" height="1368.77" filterUnits="userSpaceOnUse" color-interpolation-filters="sRGB">
<feFlood flood-opacity="0" result="BackgroundImageFix"/>
<feBlend mode="normal" in="SourceGraphic" in2="BackgroundImageFix" result="shape"/>
<feGaussianBlur stdDeviation="100" result="effect1_foregroundBlur_2377_10266"/>
</filter>
<filter id="filter3_f_2377_10266" x="239.125" y="369.55" width="997.224" height="840.018" filterUnits="userSpaceOnUse" color-interpolation-filters="sRGB">
<feFlood flood-opacity="0" result="BackgroundImageFix"/>
<feBlend mode="normal" in="SourceGraphic" in2="BackgroundImageFix" result="shape"/>
<feGaussianBlur stdDeviation="115.35" result="effect1_foregroundBlur_2377_10266"/>
</filter>
<filter id="filter4_f_2377_10266" x="94.5652" y="653.344" width="1286.17" height="112.189" filterUnits="userSpaceOnUse" color-interpolation-filters="sRGB">
<feFlood flood-opacity="0" result="BackgroundImageFix"/>
<feBlend mode="normal" in="SourceGraphic" in2="BackgroundImageFix" result="shape"/>
<feGaussianBlur stdDeviation="4.15" result="effect1_foregroundBlur_2377_10266"/>
</filter>
<filter id="filter5_f_2377_10266" x="38.4545" y="581.278" width="1398.39" height="240.358" filterUnits="userSpaceOnUse" color-interpolation-filters="sRGB">
<feFlood flood-opacity="0" result="BackgroundImageFix"/>
<feBlend mode="normal" in="SourceGraphic" in2="BackgroundImageFix" result="shape"/>
<feGaussianBlur stdDeviation="32.2" result="effect1_foregroundBlur_2377_10266"/>
</filter>
<clipPath id="clip0_2377_10266">
<path d="M0 50C0 27.9086 17.9086 10 40 10H1472C1494.09 10 1512 27.9086 1512 50V994C1512 1016.09 1494.09 1034 1472 1034H40C17.9086 1034 0 1016.09 0 994V50Z" fill="white"/>
</clipPath>
</defs>
</svg>
